<svg viewBox="0 0 16.933 16.933" xmlns="http://www.w3.org/2000/svg"><path fill="#ecb584" d="M0 0h16.933v16.933H0z"/><path style="-inkscape-font-specification:&quot;Lexend Bold&quot;" d="m2.444 10.159-1.41-3.372h1.124l.838 2.521-.248.025.864-2.546h1.111l-1.48 3.372zm3.956.057q-.426 0-.762-.222-.33-.229-.527-.622-.197-.4-.197-.902 0-.515.197-.908.197-.394.54-.616.342-.229.78-.229.242 0 .439.07.203.07.355.197.153.12.26.286.109.158.16.343l-.21-.026v-.8h1.01v3.372h-1.03v-.813l.23-.006q-.051.178-.166.336-.114.16-.28.28-.164.12-.367.19-.204.07-.432.07m.28-.857q.234 0 .406-.108.171-.108.266-.305.095-.203.095-.476T7.352 8q-.095-.203-.266-.311-.172-.115-.407-.115-.228 0-.4.115-.165.108-.26.31-.096.198-.096.47 0 .274.096.477.095.197.26.305.172.108.4.108m3.904.857q-.425 0-.762-.222-.33-.229-.527-.622-.197-.4-.197-.902 0-.515.197-.908.197-.394.54-.616.343-.229.781-.229.241 0 .438.07.203.07.356.197.152.12.26.286.108.158.159.343l-.21-.026v-.8h1.01v3.372H11.6v-.813l.229-.006q-.05.178-.165.336-.114.16-.28.28-.165.12-.368.19t-.432.07m.28-.857q.235 0 .406-.108t.267-.305q.095-.203.095-.476T11.537 8q-.095-.203-.267-.311-.171-.115-.406-.115-.229 0-.4.115-.165.108-.26.31-.096.198-.096.47 0 .274.095.477.096.197.26.305.172.108.4.108m2.66.8V6.787h.966l.044 1.099-.19-.21q.076-.273.247-.489.178-.216.413-.343t.502-.127q.114 0 .21.02.1.018.183.044l-.28 1.124q-.069-.045-.19-.07-.114-.032-.24-.032-.14 0-.261.05-.12.045-.203.134t-.134.21q-.044.12-.044.273v1.689z" aria-label="vaar" font-weight="700" font-size="6.35" font-family="Lexend" fill="#7f6147"/></svg>